<svg width="153" height="48" viewBox="0 0 153 48" version="1.1" xmlns="http://www.w3.org/2000/svg"><title>82941259-C983-494F-A178-EA6527272E1A</title><g stroke="none" stroke-width="1" fill="none" fill-rule="evenodd"><path d="M4.46 28.24c-.395-.315-.95-.473-1.636-.473H0v1.68h2.164c.58.053.555.053.58.315h.054-.08l-.026.026c-.105.237-.818.84-.844 1.68v11.105H4.17V31.652c-.026-.656.792-.997.845-2.074a1.48 1.48 0 0 0-.555-1.338zm36.16 9.686l-2.429-7.009h-1.9l-2.428 7.01-1.9-7.01H29.64L32.78 42.6h1.769l2.666-7.744 2.692 7.744h1.795l3.14-11.682H42.52l-1.9 7.01zm11.586-5.933c-.792-.866-1.98-1.286-3.484-1.286-1.082 0-2.006.21-2.771.63l-.08.053-.079.052v2.494l.476-.315c.765-.499 1.53-.735 2.375-.735s1.399.236 1.795.682c.396.447.607 1.077.607 1.917v7.14h2.27v-7.613c0-1.26-.37-2.284-1.109-3.019zm-37.109-.157c-.422-.368-.924-.63-1.478-.84-.554-.21-1.188-.289-1.848-.289a5.321 5.321 0 0 0-3.14.998v-.788H6.334V42.6h2.27v-7.56c0-.604.29-1.05.95-1.497.713-.446 1.4-.682 2.138-.682.792 0 1.346.21 1.795.577.422.394.633.893.633 1.602v7.534h2.297v-7.718c0-.63-.106-1.208-.343-1.707a3.98 3.98 0 0 0-.977-1.312zm13.197-.919h-2.27v8.925c-.818.526-1.716.762-2.692.762-1.03 0-1.795-.184-2.35-.551-.554-.368-.791-.788-.791-1.366 0-.262.053-.472.185-.708.132-.237.316-.42.554-.604.211-.158.475-.315.765-.42.29-.105.581-.158.871-.158h1.505v-2.152h-1.769c-1.451-.026-1.874-.368-1.874-.919.027-.525.317-.788 1.531-.84.106 0 .343.026.634.052.29.053.66.105 1.082.21l.158.053.211.052v-2.126l-.21-.079a6.008 6.008 0 0 0-1.901-.315c-.528 0-1.03.08-1.505.21a4.764 4.764 0 0 0-1.214.604c-.37.263-.633.578-.844.945-.211.394-.29.788-.29 1.234 0 .551.21 1.076.606 1.496.212.263.476.473.766.63-.317.21-.607.5-.871.84-.475.604-.74 1.26-.74 1.995 0-.026 0 0 0 0 0 1.13.476 2.127 1.426 2.862.977.787 2.35 1.181 4.065 1.181 2.111 0 3.774-.63 4.909-1.942l.026-.027h.053v-.052l.026-.053-.026-.026v-9.713h-.026zM63.08 26.98v1.838h9.238v-1.995H63.08v.157zm29.825 12.837c-.819.525-1.716.762-2.719.762-1.03 0-1.795-.184-2.349-.552-.554-.367-.792-.787-.792-1.365 0-.262.08-.472.211-.709.132-.236.317-.42.528-.603.211-.158.475-.315.766-.42.29-.105.58-.158.87-.158h1.505V34.62h-1.742c-1.425-.027-1.874-.368-1.874-.92.027-.524.317-.787 1.531-.84.106 0 .343.027.633.053.29.053.66.105 1.083.21l.158.053.211.052v-2.126l-.211-.079a6.008 6.008 0 0 0-1.9-.315c-.528 0-1.03.079-1.478.21-.45.158-.871.341-1.214.604-.37.262-.634.577-.845.945-.211.394-.29.787-.29 1.234 0 .551.21 1.05.58 1.496.238.263.475.473.766.63-.317.21-.607.499-.871.84-.475.604-.74 1.26-.74 1.969v.026c0 1.129.502 2.127 1.426 2.862.976.787 2.349 1.18 4.064 1.18 2.086 0 3.775-.63 4.91-1.942l.026-.026.053-.131v-9.792h-2.27v9.004h-.026zm.791-13.729c-.66 0-1.16.157-1.504.499-.317.367-.396.84-.396 1.417v.788h2.296v-.604c.053-.315.027-.341.555-.394h1.082v-.288l.026-1.103v-.315h-2.059zm-23.648 12.39c0 .604-.238 1.077-.818 1.497-.607.446-1.24.656-1.927.656-.739 0-1.267-.184-1.636-.525-.37-.341-.555-.788-.581-1.418V34.75c0-1.26-.528-2.31-1.557-3.045-.924-.683-2.085-.998-3.484-.998-2.138 0-3.827.866-4.988 2.546l-.027.027-.026.052V42.6h3.959v-2.126H57.3v-6.484c.633-.736 1.53-1.103 2.771-1.103.845 0 1.505.21 2.033.577.501.368.739.84.739 1.55v3.674c0 1.182.395 2.206 1.187 2.967.792.761 1.874 1.129 3.141 1.129a4.858 4.858 0 0 0 2.903-.945v.76h2.27v-11.68h-2.27v7.56h-.026zm11.085-4.909l2.006-1.81-1.927-1.05-4.355 3.7.66.106c2.824.472 4.012 1.575 4.038 3.412 0 .814-.29 1.418-.87 1.916-.608.5-1.4.788-2.481.814h-.264c-.238 0-.475-.026-.713-.052-.238-.053-.502-.105-.739-.158v-9.555h-2.27v11.13l.211.08c1.162.445 2.376.655 3.643.655h.158c1.715-.026 3.14-.472 4.196-1.39.977-.841 1.478-2.022 1.452-3.44V37.9c-.026-1.943-.976-3.439-2.745-4.332zM104.082 0H153v48h-48.918z" fill="#462279"/><path d="M146.755 37.213l-5.136-19.839L128.02 5.217l-13.599 12.157-5.135 19.839 9.72 4.526h7.678v-6.777s-14.254 7.424-10.533-9.208c1.231-5.509 7.782-12.88 11.529-14.924.105-.077.236-.13.34-.18 3.669 1.758 10.612 9.414 11.87 15.104 3.72 16.632-10.533 9.208-10.533 9.208v6.777h7.677l9.721-4.526z" fill="#FEAC00"/><path d="M65.656 10.386l.398-2.33s-2.018-.752-4.701-.752c-2.71 0-6.057.752-6.057 4.31 0 3.208 3.878 3.759 4.782 3.984.876.226 3.639.702 3.639 2.105 0 1.404-2.046 1.83-3.294 1.804-2.79-.075-4.861-1.202-4.861-1.202l-.399 2.48s2.072 1.128 5.233 1.128c3.161 0 6.216-1.278 6.216-4.185 0-2.73-1.753-3.733-4.542-4.335-3.214-.726-3.852-1.152-3.852-1.98 0-.876.93-1.653 3.267-1.653 1.993-.025 4.17.626 4.17.626zM78.7 10.595l.352-2.515s-1.686-.776-3.95-.776c-2.265 0-7.449.509-7.449 7.893 0 7.385 5.234 7.76 7.297 7.76 2.064 0 4.152-.883 4.152-.883l-.352-2.462s-1.46.722-3.523.722c-1.963 0-4.479-.374-4.479-5.163 0-4.87 2.491-5.164 4.554-5.164 1.56 0 3.397.588 3.397.588zM92.917 14.26v-.13s2.141-.31 2.141-3.18c0-2.973-2.76-3.646-5.212-3.646h-6.58v14.609s3.638-.026 6.864-.026c3.225 0 5.625-1.086 5.625-4.137 0-2.896-2.4-3.387-2.838-3.49zM86.13 9.709s2.554.026 3.845.026c1.29 0 2.322.388 2.322 1.81 0 1.267-.697 1.836-2.296 1.836-1.6 0-3.845-.026-3.845-.026V9.709h-.026zm4.129 9.748a609.5 609.5 0 0 1-4.13-.026l-.025-3.982s3.2.026 4.232.026 2.451.207 2.451 1.913c.026 1.836-1.135 2.069-2.528 2.069z" fill="#462279"/></g></svg>